<?xml version="1.0" encoding="UTF-8" standalone="no" ?>
<!DOCTYPE svg PUBLIC "-//W3C//DTD SVG 1.1//EN" "http://www.w3.org/Graphics/SVG/1.1/DTD/svg11.dtd">
<svg xmlns="http://www.w3.org/2000/svg" xmlns:xlink="http://www.w3.org/1999/xlink" version="1.1" width="128" height="128" viewBox="0 0 128 128" xml:space="preserve">
<desc>Created with Fabric.js 4.6.0</desc>
<defs>
</defs>
<g transform="matrix(2.67 0 0 2.67 64 64)" id="cWewC4PLa_aA1eH9VZOmm"  >
<path style="stroke: rgb(76,86,54); stroke-width: 0; stroke-dasharray: none; stroke-linecap: butt; stroke-dashoffset: 0; stroke-linejoin: miter; stroke-miterlimit: 4; fill: rgb(234,234,234); fill-rule: nonzero; opacity: 1;" vector-effect="non-scaling-stroke"  transform=" translate(0, 0)" d="M -23.98477 -13.8089 C -23.98477 -19.42888 -19.42887 -23.98478 -13.808890000000002 -23.98478 L 13.808889999999998 -23.98478 L 13.808889999999998 -23.98478 C 19.428869999999996 -23.98478 23.984769999999997 -19.42888 23.984769999999997 -13.808900000000001 L 23.984769999999997 13.808899999999998 L 23.984769999999997 13.808899999999998 C 23.984769999999997 19.42888 19.428869999999996 23.984779999999997 13.808889999999998 23.984779999999997 L -13.808890000000002 23.984779999999997 L -13.808890000000002 23.984779999999997 C -19.428870000000003 23.984779999999997 -23.98477 19.428879999999996 -23.98477 13.808899999999998 z" stroke-linecap="round" />
</g>
<g transform="matrix(4.28 0 0 4.28 97.24 93.56)" id="ZIIY7JrJKbQtNuya3yMCB"  >
<path style="stroke: rgb(66,162,245); stroke-width: 0; stroke-dasharray: none; stroke-linecap: butt; stroke-dashoffset: 0; stroke-linejoin: miter; stroke-miterlimit: 4; fill: rgb(0,0,0); fill-rule: nonzero; opacity: 1;" vector-effect="non-scaling-stroke"  transform=" translate(0, 0)" d="M 0 -2.32428 C 1.283 -2.32428 2.32428 -1.283 2.32428 0 C 2.32428 1.283 1.283 2.32428 0 2.32428 C -1.283 2.32428 -2.32428 1.283 -2.32428 0 C -2.32428 -1.283 -1.283 -2.32428 0 -2.32428 z" stroke-linecap="round" />
</g>
<g transform="matrix(4.28 0 0 4.28 31.43 34.11)" id="g3SOoh-glfG8y1iJq9n5r"  >
<path style="stroke: rgb(66,162,245); stroke-width: 0; stroke-dasharray: none; stroke-linecap: butt; stroke-dashoffset: 0; stroke-linejoin: miter; stroke-miterlimit: 4; fill: rgb(0,0,0); fill-rule: nonzero; opacity: 1;" vector-effect="non-scaling-stroke"  transform=" translate(0, 0)" d="M 0 -2.32428 C 1.283 -2.32428 2.32428 -1.283 2.32428 0 C 2.32428 1.283 1.283 2.32428 0 2.32428 C -1.283 2.32428 -2.32428 1.283 -2.32428 0 C -2.32428 -1.283 -1.283 -2.32428 0 -2.32428 z" stroke-linecap="round" />
</g>
</svg>